<?xml version="1.0" encoding="UTF-8"?>
<!DOCTYPE svg PUBLIC "-//W3C//DTD SVG 1.1//EN" "http://www.w3.org/Graphics/SVG/1.1/DTD/svg11.dtd">
<svg xmlns="http://www.w3.org/2000/svg" version="1.1" width="820px" height="820px" style="shape-rendering:geometricPrecision; text-rendering:geometricPrecision; image-rendering:optimizeQuality; fill-rule:evenodd; clip-rule:evenodd" xmlns:xlink="http://www.w3.org/1999/xlink">
<g><path style="opacity:0.99" fill="#007eff" d="M 120.5,162.5 C 127.762,161.49 134.429,162.99 140.5,167C 199.337,201.253 258.337,235.253 317.5,269C 322.631,271.044 327.631,270.711 332.5,268C 393.337,232.747 454.337,197.747 515.5,163C 526.955,160.306 534.455,164.473 538,175.5C 538.667,269.5 538.667,363.5 538,457.5C 536.311,462.525 533.144,466.359 528.5,469C 497.167,487 465.833,505 434.5,523C 425.167,532 425.167,541 434.5,550C 451.663,559.414 468.663,569.08 485.5,579C 492.167,583.667 498.833,583.667 505.5,579C 542.337,557.414 579.337,536.081 616.5,515C 620.092,511.984 622.258,508.151 623,503.5C 623.333,469.167 623.667,434.833 624,400.5C 625.679,396.618 628.179,393.452 631.5,391C 648.833,381 666.167,371 683.5,361C 694.588,356.251 703.088,359.085 709,369.5C 709.667,431.833 709.667,494.167 709,556.5C 708.439,558.725 707.439,560.725 706,562.5C 640.412,601.045 574.579,639.212 508.5,677C 499.833,683 491.167,683 482.5,677C 431.833,648 381.167,619 330.5,590C 327.457,587.407 325.29,584.24 324,580.5C 323.333,549.167 323.333,517.833 324,486.5C 366.333,462.167 408.667,437.833 451,413.5C 451.667,383.167 451.667,352.833 451,322.5C 445.953,311.396 437.786,308.229 426.5,313C 395.664,331.252 364.664,349.252 333.5,367C 327.167,370.333 320.833,370.333 314.5,367C 282.833,348.667 251.167,330.333 219.5,312C 209.18,308.55 201.68,311.716 197,321.5C 196.667,376.167 196.333,430.833 196,485.5C 192.594,497.622 184.761,502.122 172.5,499C 152.91,488.4 133.576,477.4 114.5,466C 112.57,463.742 111.07,461.242 110,458.5C 109.333,363.833 109.333,269.167 110,174.5C 111.936,169.068 115.436,165.068 120.5,162.5 Z"/></g>
<g><path style="opacity:0.981" fill="#007eff" d="M 689.5,162.5 C 698.497,161.911 704.997,165.578 709,173.5C 709.972,198.896 709.638,224.229 708,249.5C 705.575,253.134 702.408,255.968 698.5,258C 683.334,266.748 668.334,275.748 653.5,285C 640.527,291.303 631.361,287.803 626,274.5C 625.03,250.77 625.364,227.103 627,203.5C 628.779,199.388 631.612,196.222 635.5,194C 653.431,183.207 671.431,172.707 689.5,162.5 Z"/></g>
</svg>
