<?xml version="1.0" encoding="UTF-8"?>
<!DOCTYPE svg PUBLIC "-//W3C//DTD SVG 1.1//EN" "http://www.w3.org/Graphics/SVG/1.1/DTD/svg11.dtd">
<svg xmlns="http://www.w3.org/2000/svg" version="1.1" width="1280px" height="1280px" style="shape-rendering:geometricPrecision; text-rendering:geometricPrecision; image-rendering:optimizeQuality; fill-rule:evenodd; clip-rule:evenodd" xmlns:xlink="http://www.w3.org/1999/xlink">
<g><path style="opacity:0.997" fill="#012c4b" d="M 1279.5,622.5 C 1279.5,632.833 1279.5,643.167 1279.5,653.5C 1272.96,688.904 1256.29,718.738 1229.5,743C 1198.37,769.416 1164.04,791.083 1126.5,808C 1088.42,825.247 1049.42,839.914 1009.5,852C 1028.32,913.422 1037.16,976.256 1036,1040.5C 1034.75,1086.93 1020.75,1128.93 994,1166.5C 959.975,1205.07 917.475,1219.57 866.5,1210C 842.409,1205.12 819.409,1197.12 797.5,1186C 763.955,1168.07 732.288,1147.4 702.5,1124C 683.541,1108.71 664.874,1093.04 646.5,1077C 643.333,1073.17 640.167,1069.33 637,1065.5C 596.41,1108.46 550.91,1144.96 500.5,1175C 463.873,1196.43 424.373,1207.93 382,1209.5C 321.216,1207.36 279.883,1178.03 258,1121.5C 250,1098.5 245.333,1074.84 244,1050.5C 242.127,982.854 249.294,916.187 265.5,850.5C 212.694,837.733 162.361,818.566 114.5,793C 80.5235,774.701 51.6902,750.201 28,719.5C 13.524,699.225 4.02396,676.892 -0.5,652.5C -0.5,641.833 -0.5,631.167 -0.5,620.5C 6.57481,584.526 23.9081,554.36 51.5,530C 83.7662,502.784 119.433,480.784 158.5,464C 191.21,449.762 224.543,437.096 258.5,426C 261.432,425.047 264.432,424.547 267.5,424.5C 261.865,400.958 256.698,377.291 252,353.5C 242.888,307.825 240.555,261.825 245,215.5C 249.484,173.558 265.15,136.558 292,104.5C 323.91,73.3099 362.077,61.1432 406.5,68C 438.474,73.6577 468.474,84.6577 496.5,101C 547.711,131.711 595.045,167.545 638.5,208.5C 667.876,179.612 698.876,152.779 731.5,128C 762.825,104.836 797.158,87.1689 834.5,75C 870.553,63.824 906.553,63.824 942.5,75C 973.013,87.1799 995.513,108.013 1010,137.5C 1022.59,165.109 1029.59,194.109 1031,224.5C 1033.05,291.371 1025.88,357.204 1009.5,422C 1047.97,432.6 1085.63,445.6 1122.5,461C 1163.66,477.979 1200.16,501.812 1232,532.5C 1248.24,549.97 1261.24,569.637 1271,591.5C 1274.64,601.748 1277.48,612.081 1279.5,622.5 Z"/></g>
<g><path style="opacity:1" fill="#fe4053" d="M 378.5,120.5 C 403.132,119.926 426.799,124.426 449.5,134C 477.949,146.38 504.283,162.047 528.5,181C 588.812,230.644 642.979,286.144 691,347.5C 696.043,360.244 692.209,369.077 679.5,374C 565.598,373.377 452.598,383.044 340.5,403C 329.803,404.902 322.637,400.735 319,390.5C 308.978,344.201 303.478,297.368 302.5,250C 301.701,221.922 306.201,194.755 316,168.5C 327.81,140.536 348.644,124.536 378.5,120.5 Z"/></g>
<g><path style="opacity:1" fill="#fe4053" d="M 885.5,120.5 C 918.325,117.994 943.158,130.66 960,158.5C 972.438,181.244 979.772,205.577 982,231.5C 983.775,264.68 982.108,297.68 977,330.5C 964.051,401.297 944.718,470.297 919,537.5C 914.136,549.847 905.302,554.014 892.5,550C 890.04,548.542 887.873,546.709 886,544.5C 828.589,442.453 762.589,346.453 688,256.5C 685.546,250.137 686.212,244.137 690,238.5C 727.726,203.765 768.559,173.265 812.5,147C 835.419,133.864 859.752,125.031 885.5,120.5 Z"/></g>
<g><path style="opacity:1" fill="#fdd74c" d="M 534.5,430.5 C 604.167,430.333 673.834,430.5 743.5,431C 754.204,433.383 762.371,439.217 768,448.5C 802.099,507.597 835.766,566.93 869,626.5C 871.736,636.4 870.402,645.733 865,654.5C 831.586,712.997 797.919,771.33 764,829.5C 758.638,835.264 752.138,839.098 744.5,841C 674.167,841.667 603.833,841.667 533.5,841C 523.653,838.163 516.153,832.329 511,823.5C 476.813,764.459 443.147,705.126 410,645.5C 409.333,639.167 409.333,632.833 410,626.5C 444.066,566.036 478.4,505.703 513,445.5C 518.409,437.916 525.576,432.916 534.5,430.5 Z"/></g>
<g><path style="opacity:1" fill="#fe4053" d="M 410.5,444.5 C 423.371,442.014 432.204,446.68 437,458.5C 437.61,462.236 437.277,465.903 436,469.5C 375.83,569.179 325.83,673.845 286,783.5C 280.844,791.994 273.344,795.494 263.5,794C 213.97,778.232 166.636,757.565 121.5,732C 99.2595,718.761 79.7595,702.261 63,682.5C 42.7491,654.397 41.4158,625.397 59,595.5C 72.7888,574.044 90.2888,556.211 111.5,542C 151.115,517.031 193.448,497.698 238.5,484C 295.215,467.582 352.548,454.416 410.5,444.5 Z"/></g>
<g><path style="opacity:1" fill="#022c4b" d="M 556.5,473.5 C 611.168,473.333 665.834,473.5 720.5,474C 729.615,475.972 736.782,480.805 742,488.5C 766.414,531.663 791.081,574.663 816,617.5C 822.046,627.338 823.046,637.671 819,648.5C 794,692.5 769,736.5 744,780.5C 738.602,790.892 730.102,797.058 718.5,799C 665.5,799.667 612.5,799.667 559.5,799C 548.661,796.335 540.494,790.168 535,780.5C 510,736.5 485,692.5 460,648.5C 455.955,637.666 456.955,627.333 463,617.5C 487.919,574.663 512.586,531.663 537,488.5C 541.995,481.433 548.495,476.433 556.5,473.5 Z"/></g>
<g><path style="opacity:1" fill="#fe4053" d="M 1005.5,484.5 C 1009.58,484.344 1013.58,484.844 1017.5,486C 1066.34,501.496 1113,521.829 1157.5,547C 1178.37,559.202 1196.87,574.369 1213,592.5C 1224.79,606.877 1231.29,623.377 1232.5,642C 1231.18,661.96 1224.35,679.793 1212,695.5C 1192.76,718.744 1169.93,737.578 1143.5,752C 1119.62,764.739 1094.95,775.739 1069.5,785C 999.522,808.994 927.855,825.327 854.5,834C 844.488,829.814 840.321,822.314 842,811.5C 902.469,711.14 952.802,605.807 993,495.5C 996.124,490.536 1000.29,486.87 1005.5,484.5 Z"/></g>
<g><path style="opacity:1" fill="#fdd74c" d="M 583.5,519.5 C 620.502,519.333 657.502,519.5 694.5,520C 703.065,521.866 709.898,526.366 715,533.5C 732.854,563.874 750.187,594.541 767,625.5C 769.104,633.592 768.771,641.592 766,649.5C 748.399,680.759 730.399,711.759 712,742.5C 706.119,748.524 698.952,752.024 690.5,753C 655.833,753.667 621.167,753.667 586.5,753C 575.803,750.626 567.637,744.793 562,735.5C 546.667,708.833 531.333,682.167 516,655.5C 510.11,644.928 509.11,633.928 513,622.5C 530,592.833 547,563.167 564,533.5C 566.833,530.667 569.667,527.833 572.5,525C 576.259,523.121 579.925,521.287 583.5,519.5 Z"/></g>
<g><path style="opacity:1" fill="#012c4b" d="M 610.5,563.5 C 629.17,563.333 647.836,563.5 666.5,564C 676.51,565.416 684.343,570.25 690,578.5C 698.667,593.833 707.333,609.167 716,624.5C 718.247,632.963 717.913,641.296 715,649.5C 706.253,665.33 697.253,680.996 688,696.5C 682.716,703.059 675.883,706.893 667.5,708C 648.5,708.667 629.5,708.667 610.5,708C 599.863,705.931 592.03,700.098 587,690.5C 578.144,675.455 569.811,660.121 562,644.5C 560.133,634.487 561.799,625.154 567,616.5C 574.935,602.239 583.269,588.239 592,574.5C 597.398,569.39 603.564,565.724 610.5,563.5 Z"/></g>
<g><path style="opacity:1" fill="#fcd74c" d="M 631.5,607.5 C 650.32,604.849 662.486,612.515 668,630.5C 669.747,648.502 661.913,660.002 644.5,665C 626.805,666.407 615.639,658.574 611,641.5C 609.423,624.972 616.257,613.639 631.5,607.5 Z"/></g>
<g><path style="opacity:1" fill="#fe4053" d="M 372.5,727.5 C 380.737,725.967 387.57,728.301 393,734.5C 448.867,835.271 513.867,929.604 588,1017.5C 594.977,1029.44 592.81,1039.61 581.5,1048C 545.827,1079.67 507.494,1107.67 466.5,1132C 364.664,1185.5 308.164,1155 297,1040.5C 294.698,1004.85 297.031,969.521 304,934.5C 317.431,866.775 336.765,800.775 362,736.5C 364.468,732.199 367.968,729.199 372.5,727.5 Z"/></g>
<g><path style="opacity:1" fill="#fe4053" d="M 945.5,868.5 C 955.853,867.705 963.019,872.039 967,881.5C 974.24,916.181 979.24,951.181 982,986.5C 982.887,1009.52 982.553,1032.52 981,1055.5C 979.236,1079.24 972.236,1101.24 960,1121.5C 943.712,1142.81 922.046,1152.81 895,1151.5C 876.17,1150.87 858.003,1147.03 840.5,1140C 812.78,1128.65 787.114,1113.98 763.5,1096C 729.908,1070.09 698.408,1041.59 669,1010.5C 643.214,983.054 618.547,954.721 595,925.5C 589.704,912.932 593.204,903.765 605.5,898C 719.92,898.875 833.253,889.042 945.5,868.5 Z"/></g>
</svg>
