<?xml version="1.0" encoding="UTF-8"?>
<!DOCTYPE svg PUBLIC "-//W3C//DTD SVG 1.1//EN" "http://www.w3.org/Graphics/SVG/1.1/DTD/svg11.dtd">
<svg xmlns="http://www.w3.org/2000/svg" version="1.1" width="406px" height="404px" style="shape-rendering:geometricPrecision; text-rendering:geometricPrecision; image-rendering:optimizeQuality; fill-rule:evenodd; clip-rule:evenodd" xmlns:xlink="http://www.w3.org/1999/xlink">
<g><path style="opacity:0.993" fill="#fefefe" d="M 76.5,-0.5 C 160.5,-0.5 244.5,-0.5 328.5,-0.5C 371.167,8.16667 396.833,33.8333 405.5,76.5C 405.5,159.833 405.5,243.167 405.5,326.5C 396.833,369.167 371.167,394.833 328.5,403.5C 244.5,403.5 160.5,403.5 76.5,403.5C 33.8333,394.833 8.16667,369.167 -0.5,326.5C -0.5,243.167 -0.5,159.833 -0.5,76.5C 8.16667,33.8333 33.8333,8.16667 76.5,-0.5 Z"/></g>
<g><path style="opacity:1" fill="#ec5990" d="M 80.5,33.5 C 160.834,33.3333 241.167,33.5 321.5,34C 348.651,38.1508 365.151,53.6508 371,80.5C 371.667,160.167 371.667,239.833 371,319.5C 366.5,348 350,364.5 321.5,369C 241.167,369.667 160.833,369.667 80.5,369C 53.6508,363.151 38.1508,346.651 34,319.5C 33.3333,239.833 33.3333,160.167 34,80.5C 39.6807,54.9865 55.1807,39.3199 80.5,33.5 Z"/></g>
<g><path style="opacity:1" fill="#fdf1f6" d="M 197.5,86.5 C 210.159,85.4911 219.159,90.6578 224.5,102C 239.833,102.333 255.167,102.667 270.5,103C 283.898,106.065 292.398,114.232 296,127.5C 296.667,181.833 296.667,236.167 296,290.5C 292.833,304.333 284.333,312.833 270.5,316C 224.5,316.667 178.5,316.667 132.5,316C 119.791,311.959 111.958,303.459 109,290.5C 108.333,236.167 108.333,181.833 109,127.5C 112.64,114.192 121.14,106.025 134.5,103C 149.833,102.667 165.167,102.333 180.5,102C 183.838,94.157 189.505,88.9903 197.5,86.5 Z"/></g>
<g><path style="opacity:1" fill="#ec5990" d="M 221.5,107.5 C 226.305,108.487 231.305,108.821 236.5,108.5C 236.5,114.833 236.5,121.167 236.5,127.5C 236.262,130.148 234.928,131.982 232.5,133C 212.5,133.667 192.5,133.667 172.5,133C 170.181,131.853 168.848,130.019 168.5,127.5C 168.5,121.167 168.5,114.833 168.5,108.5C 173.695,108.821 178.695,108.487 183.5,107.5C 185.609,102.818 188.609,98.651 192.5,95C 206.513,89.3859 216.18,93.5526 221.5,107.5 Z"/></g>
<g><path style="opacity:1" fill="#ec5990" d="M 131.5,108.5 C 141.833,108.5 152.167,108.5 162.5,108.5C 162.334,115.508 162.5,122.508 163,129.5C 164.833,134 168,137.167 172.5,139C 192.5,139.667 212.5,139.667 232.5,139C 237,137.167 240.167,134 242,129.5C 242.5,122.508 242.666,115.508 242.5,108.5C 253.578,108.069 264.578,108.569 275.5,110C 283.164,112.998 287.997,118.498 290,126.5C 290.667,181.833 290.667,237.167 290,292.5C 287.5,301.667 281.667,307.5 272.5,310C 225.5,310.667 178.5,310.667 131.5,310C 122.93,307.096 117.43,301.263 115,292.5C 114.333,237.167 114.333,181.833 115,126.5C 117.592,117.745 123.092,111.745 131.5,108.5 Z"/></g>
<g><path style="opacity:1" fill="#f5b1cb" d="M 183.5,107.5 C 178.695,108.487 173.695,108.821 168.5,108.5C 168.5,114.833 168.5,121.167 168.5,127.5C 167.509,121.021 167.176,114.354 167.5,107.5C 172.833,107.5 178.167,107.5 183.5,107.5 Z"/></g>
<g><path style="opacity:1" fill="#f4a1c0" d="M 221.5,107.5 C 226.833,107.5 232.167,107.5 237.5,107.5C 237.824,114.354 237.491,121.021 236.5,127.5C 236.5,121.167 236.5,114.833 236.5,108.5C 231.305,108.821 226.305,108.487 221.5,107.5 Z"/></g>
<g><path style="opacity:1" fill="#fdeff4" d="M 141.5,190.5 C 158.17,190.333 174.837,190.5 191.5,191C 194.167,192.667 194.167,194.333 191.5,196C 174.833,196.667 158.167,196.667 141.5,196C 140.248,194.172 140.248,192.339 141.5,190.5 Z"/></g>
<g><path style="opacity:1" fill="#fdeff4" d="M 212.5,190.5 C 229.17,190.333 245.837,190.5 262.5,191C 263.833,192.667 263.833,194.333 262.5,196C 245.833,196.667 229.167,196.667 212.5,196C 209.982,194.19 209.982,192.357 212.5,190.5 Z"/></g>
<g><path style="opacity:1" fill="#fdeff4" d="M 141.5,255.5 C 158.17,255.333 174.837,255.5 191.5,256C 194.003,257.784 194.003,259.451 191.5,261C 174.833,261.667 158.167,261.667 141.5,261C 140.248,259.172 140.248,257.339 141.5,255.5 Z"/></g>
<g><path style="opacity:1" fill="#fdeff4" d="M 212.5,255.5 C 229.17,255.333 245.837,255.5 262.5,256C 263.833,257.667 263.833,259.333 262.5,261C 245.833,261.667 229.167,261.667 212.5,261C 210.103,259.29 210.103,257.456 212.5,255.5 Z"/></g>
</svg>
