<?xml version="1.0" encoding="UTF-8"?>
<!DOCTYPE svg PUBLIC "-//W3C//DTD SVG 1.1//EN" "http://www.w3.org/Graphics/SVG/1.1/DTD/svg11.dtd">
<svg xmlns="http://www.w3.org/2000/svg" version="1.1" width="311px" height="162px" style="shape-rendering:geometricPrecision; text-rendering:geometricPrecision; image-rendering:optimizeQuality; fill-rule:evenodd; clip-rule:evenodd" xmlns:xlink="http://www.w3.org/1999/xlink">
<g><path style="opacity:1" fill="#fe9f6e" d="M -0.5,-0.5 C 18.1667,-0.5 36.8333,-0.5 55.5,-0.5C 55.5,2.16667 55.5,4.83333 55.5,7.5C 60.8333,7.5 66.1667,7.5 71.5,7.5C 71.5,10.1667 71.5,12.8333 71.5,15.5C 79.5,15.5 87.5,15.5 95.5,15.5C 95.5,18.1667 95.5,20.8333 95.5,23.5C 100.833,23.5 106.167,23.5 111.5,23.5C 111.5,26.1667 111.5,28.8333 111.5,31.5C 119.5,31.5 127.5,31.5 135.5,31.5C 135.5,34.1667 135.5,36.8333 135.5,39.5C 143.5,39.5 151.5,39.5 159.5,39.5C 159.5,42.1667 159.5,44.8333 159.5,47.5C 164.833,47.5 170.167,47.5 175.5,47.5C 175.5,44.8333 175.5,42.1667 175.5,39.5C 178.879,39.6782 182.045,39.6782 185,39.5C 184.595,43.1206 184.595,46.7872 185,50.5C 185.26,46.5759 186.26,42.9093 188,39.5C 188.333,40.1667 188.667,40.8333 189,41.5C 189.64,39.735 189.473,38.0683 188.5,36.5C 189.167,36.5 189.833,36.5 190.5,36.5C 190.804,37.1499 191.137,37.8165 191.5,38.5C 188.763,47.0176 186.596,55.6843 185,64.5C 182.814,68.4392 180.814,72.4392 179,76.5C 177.362,78.7337 175.195,80.067 172.5,80.5C 172.5,78.8333 172.5,77.1667 172.5,75.5C 172.631,74.7611 172.464,74.0944 172,73.5C 169.963,75.7059 167.797,77.7059 165.5,79.5C 168.493,75.1775 171.826,71.1775 175.5,67.5C 176.222,67.0825 176.722,66.4158 177,65.5C 177.497,62.854 177.664,60.1873 177.5,57.5C 175.143,57.3367 172.81,57.5034 170.5,58C 169.944,58.3826 169.611,58.8826 169.5,59.5C 168.167,60.1667 166.833,60.8333 165.5,61.5C 160.039,64.5652 155.372,68.5652 151.5,73.5C 152.082,71.3313 152.082,68.998 151.5,66.5C 154.775,63.271 156.441,59.271 156.5,54.5C 156.516,52.5159 155.516,51.5159 153.5,51.5C 151.578,51.8008 149.912,52.4675 148.5,53.5C 141.636,57.0272 135.636,61.6939 130.5,67.5C 130.167,67.5 129.833,67.5 129.5,67.5C 129.631,66.7611 129.464,66.0944 129,65.5C 128.08,65.0698 127.247,64.7365 126.5,64.5C 127.407,61.5788 127.74,58.5788 127.5,55.5C 119.5,55.5 111.5,55.5 103.5,55.5C 103.5,52.8333 103.5,50.1667 103.5,47.5C 95.5,47.5 87.5,47.5 79.5,47.5C 79.5,44.8333 79.5,42.1667 79.5,39.5C 74.1667,39.5 68.8333,39.5 63.5,39.5C 63.5,36.8333 63.5,34.1667 63.5,31.5C 55.5,31.5 47.5,31.5 39.5,31.5C 39.5,28.8333 39.5,26.1667 39.5,23.5C 34.1667,23.5 28.8333,23.5 23.5,23.5C 23.5,20.8333 23.5,18.1667 23.5,15.5C 15.5,15.5 7.5,15.5 -0.5,15.5C -0.5,10.1667 -0.5,4.83333 -0.5,-0.5 Z"/></g>
<g><path style="opacity:1" fill="#feab66" d="M 127.5,-0.5 C 148.833,-0.5 170.167,-0.5 191.5,-0.5C 191.5,2.16667 191.5,4.83333 191.5,7.5C 199.5,7.5 207.5,7.5 215.5,7.5C 215.5,10.1667 215.5,12.8333 215.5,15.5C 223.5,15.5 231.5,15.5 239.5,15.5C 239.5,18.1667 239.5,20.8333 239.5,23.5C 244.833,23.5 250.167,23.5 255.5,23.5C 255.5,26.1667 255.5,28.8333 255.5,31.5C 263.5,31.5 271.5,31.5 279.5,31.5C 279.5,34.1667 279.5,36.8333 279.5,39.5C 284.833,39.5 290.167,39.5 295.5,39.5C 295.5,42.1667 295.5,44.8333 295.5,47.5C 298.833,47.5 302.167,47.5 305.5,47.5C 305.515,36.9146 306.182,36.9146 307.5,47.5C 308.329,42.1975 308.829,36.8642 309,31.5C 309.183,34.3647 309.683,37.0314 310.5,39.5C 310.5,50.1667 310.5,60.8333 310.5,71.5C 309.527,69.0521 309.194,66.3854 309.5,63.5C 307.833,63.5 306.167,63.5 304.5,63.5C 304.5,66.1667 304.5,68.8333 304.5,71.5C 298.833,71.5 293.167,71.5 287.5,71.5C 287.5,68.8333 287.5,66.1667 287.5,63.5C 282.167,63.5 276.833,63.5 271.5,63.5C 271.5,60.8333 271.5,58.1667 271.5,55.5C 263.5,55.5 255.5,55.5 247.5,55.5C 247.5,52.8333 247.5,50.1667 247.5,47.5C 243.24,47.8983 239.073,47.8983 235,47.5C 233.674,47.7549 232.674,48.4216 232,49.5C 231.502,46.1832 231.335,42.8499 231.5,39.5C 223.493,39.6664 215.493,39.4997 207.5,39C 207.164,33.9189 206.998,28.7522 207,23.5C 206.48,29.0251 205.647,34.3584 204.5,39.5C 204.5,33.1667 204.5,26.8333 204.5,20.5C 202.167,20.5 199.833,20.5 197.5,20.5C 195.5,20.5 193.5,20.5 191.5,20.5C 189.833,20.5 188.167,20.5 186.5,20.5C 185.522,20.811 184.855,21.4777 184.5,22.5C 178.872,23.4954 173.206,23.8288 167.5,23.5C 167.5,20.8333 167.5,18.1667 167.5,15.5C 159.5,15.5 151.5,15.5 143.5,15.5C 143.5,12.8333 143.5,10.1667 143.5,7.5C 138.167,7.5 132.833,7.5 127.5,7.5C 127.5,4.83333 127.5,2.16667 127.5,-0.5 Z"/></g>
<g><path style="opacity:1" fill="#feb061" d="M 191.5,-0.5 C 231.167,-0.5 270.833,-0.5 310.5,-0.5C 310.5,12.8333 310.5,26.1667 310.5,39.5C 309.683,37.0314 309.183,34.3647 309,31.5C 308.829,36.8642 308.329,42.1975 307.5,47.5C 306.182,36.9146 305.515,36.9146 305.5,47.5C 302.167,47.5 298.833,47.5 295.5,47.5C 295.5,44.8333 295.5,42.1667 295.5,39.5C 290.167,39.5 284.833,39.5 279.5,39.5C 279.5,36.8333 279.5,34.1667 279.5,31.5C 271.5,31.5 263.5,31.5 255.5,31.5C 255.5,28.8333 255.5,26.1667 255.5,23.5C 250.167,23.5 244.833,23.5 239.5,23.5C 239.5,20.8333 239.5,18.1667 239.5,15.5C 231.5,15.5 223.5,15.5 215.5,15.5C 215.5,12.8333 215.5,10.1667 215.5,7.5C 207.5,7.5 199.5,7.5 191.5,7.5C 191.5,4.83333 191.5,2.16667 191.5,-0.5 Z"/></g>
<g><path style="opacity:1" fill="#fe9975" d="M -0.5,15.5 C 7.5,15.5 15.5,15.5 23.5,15.5C 23.5,18.1667 23.5,20.8333 23.5,23.5C 28.8333,23.5 34.1667,23.5 39.5,23.5C 39.5,26.1667 39.5,28.8333 39.5,31.5C 47.5,31.5 55.5,31.5 63.5,31.5C 63.5,34.1667 63.5,36.8333 63.5,39.5C 68.8333,39.5 74.1667,39.5 79.5,39.5C 79.5,42.1667 79.5,44.8333 79.5,47.5C 87.5,47.5 95.5,47.5 103.5,47.5C 103.5,50.1667 103.5,52.8333 103.5,55.5C 111.5,55.5 119.5,55.5 127.5,55.5C 127.74,58.5788 127.407,61.5788 126.5,64.5C 127.247,64.7365 128.08,65.0698 129,65.5C 129.464,66.0944 129.631,66.7611 129.5,67.5C 121.227,73.7669 113.227,80.4336 105.5,87.5C 104.52,90.0865 104.187,92.7531 104.5,95.5C 104.5,98.5 104.5,101.5 104.5,104.5C 104.5,105.5 104.5,106.5 104.5,107.5C 104.5,107.833 104.5,108.167 104.5,108.5C 103.515,104.366 103.182,100.032 103.5,95.5C 100.833,95.5 98.1667,95.5 95.5,95.5C 95.5,92.8333 95.5,90.1667 95.5,87.5C 90.1667,87.5 84.8333,87.5 79.5,87.5C 79.5,84.8333 79.5,82.1667 79.5,79.5C 69.8442,80.0808 60.3442,79.4141 51,77.5C 48.8215,78.5236 46.6549,78.3569 44.5,77C 45.7383,76.31 45.7383,75.81 44.5,75.5C 54.3405,68.5032 64.3405,61.6699 74.5,55C 74.0541,53.2741 73.2208,51.7741 72,50.5C 63.0233,55.7321 54.19,61.0654 45.5,66.5C 43.4127,64.6987 41.0794,64.3654 38.5,65.5C 31.04,63.5797 23.3734,62.9131 15.5,63.5C 15.5,60.8333 15.5,58.1667 15.5,55.5C 11.5,55.5 7.5,55.5 3.5,55.5C 3.5,52.8333 3.5,50.1667 3.5,47.5C 2.16667,47.5 0.833333,47.5 -0.5,47.5C -0.5,36.8333 -0.5,26.1667 -0.5,15.5 Z"/></g>
<g><path style="opacity:1" fill="#fea46a" d="M 55.5,-0.5 C 79.5,-0.5 103.5,-0.5 127.5,-0.5C 127.5,2.16667 127.5,4.83333 127.5,7.5C 132.833,7.5 138.167,7.5 143.5,7.5C 143.5,10.1667 143.5,12.8333 143.5,15.5C 151.5,15.5 159.5,15.5 167.5,15.5C 167.5,18.1667 167.5,20.8333 167.5,23.5C 173.206,23.8288 178.872,23.4954 184.5,22.5C 184.855,21.4777 185.522,20.811 186.5,20.5C 186.685,24.066 186.019,27.3993 184.5,30.5C 185.265,32.8814 186.598,34.8814 188.5,36.5C 189.473,38.0683 189.64,39.735 189,41.5C 188.667,40.8333 188.333,40.1667 188,39.5C 186.26,42.9093 185.26,46.5759 185,50.5C 184.595,46.7872 184.595,43.1206 185,39.5C 182.045,39.6782 178.879,39.6782 175.5,39.5C 175.5,42.1667 175.5,44.8333 175.5,47.5C 170.167,47.5 164.833,47.5 159.5,47.5C 159.5,44.8333 159.5,42.1667 159.5,39.5C 151.5,39.5 143.5,39.5 135.5,39.5C 135.5,36.8333 135.5,34.1667 135.5,31.5C 127.5,31.5 119.5,31.5 111.5,31.5C 111.5,28.8333 111.5,26.1667 111.5,23.5C 106.167,23.5 100.833,23.5 95.5,23.5C 95.5,20.8333 95.5,18.1667 95.5,15.5C 87.5,15.5 79.5,15.5 71.5,15.5C 71.5,12.8333 71.5,10.1667 71.5,7.5C 66.1667,7.5 60.8333,7.5 55.5,7.5C 55.5,4.83333 55.5,2.16667 55.5,-0.5 Z"/></g>
<g><path style="opacity:1" fill="#f375bb" d="M 186.5,20.5 C 188.167,20.5 189.833,20.5 191.5,20.5C 191.676,25.8797 191.342,31.213 190.5,36.5C 189.833,36.5 189.167,36.5 188.5,36.5C 186.598,34.8814 185.265,32.8814 184.5,30.5C 186.019,27.3993 186.685,24.066 186.5,20.5 Z"/></g>
<g><path style="opacity:1" fill="#ae5f88" d="M 197.5,20.5 C 199.833,20.5 202.167,20.5 204.5,20.5C 204.5,26.8333 204.5,33.1667 204.5,39.5C 202.167,39.5 199.833,39.5 197.5,39.5C 195.265,48.5456 192.599,57.5456 189.5,66.5C 189.167,66.5 188.833,66.5 188.5,66.5C 192.787,51.4508 195.787,36.1175 197.5,20.5 Z"/></g>
<g><path style="opacity:1" fill="#f18ac9" d="M 191.5,20.5 C 193.5,20.5 195.5,20.5 197.5,20.5C 195.787,36.1175 192.787,51.4508 188.5,66.5C 185.947,70.9431 183.114,75.2765 180,79.5C 180.094,82.5008 178.761,84.5008 176,85.5C 174.78,83.1428 173.947,83.4761 173.5,86.5C 172.833,86.1667 172.167,85.8333 171.5,85.5C 170.167,84.5 170.167,83.5 171.5,82.5C 171.833,81.8333 172.167,81.1667 172.5,80.5C 175.195,80.067 177.362,78.7337 179,76.5C 180.814,72.4392 182.814,68.4392 185,64.5C 186.596,55.6843 188.763,47.0176 191.5,38.5C 191.137,37.8165 190.804,37.1499 190.5,36.5C 191.342,31.213 191.676,25.8797 191.5,20.5 Z"/></g>
<g><path style="opacity:1" fill="#fbf7f4" d="M 44.5,75.5 C 42.9557,75.7031 41.6223,76.3698 40.5,77.5C 39.1667,78.1667 39.1667,78.8333 40.5,79.5C 50.2058,85.2477 59.8725,91.0811 69.5,97C 71.4657,98.46 73.1323,100.127 74.5,102C 73.8914,104.803 72.2247,105.803 69.5,105C 57.7512,97.3751 45.9178,89.8751 34,82.5C 33.3333,79.5 33.3333,76.5 34,73.5C 38.2481,71.732 42.0815,69.3986 45.5,66.5C 54.19,61.0654 63.0233,55.7321 72,50.5C 73.2208,51.7741 74.0541,53.2741 74.5,55C 64.3405,61.6699 54.3405,68.5032 44.5,75.5 Z"/></g>
<g><path style="opacity:1" fill="#e066a5" d="M 148.5,53.5 C 146.201,55.9938 143.867,58.4938 141.5,61C 137.421,63.0751 133.921,65.9084 131,69.5C 130.601,69.2716 130.435,68.9382 130.5,68.5C 130.5,68.1667 130.5,67.8333 130.5,67.5C 135.636,61.6939 141.636,57.0272 148.5,53.5 Z"/></g>
<g><path style="opacity:1" fill="#fd9f6f" d="M 197.5,39.5 C 197.489,41.5466 197.156,43.5466 196.5,45.5C 198.267,51.3549 199.267,57.3549 199.5,63.5C 204.833,63.5 210.167,63.5 215.5,63.5C 215.5,66.1667 215.5,68.8333 215.5,71.5C 223.5,71.5 231.5,71.5 239.5,71.5C 239.5,74.1667 239.5,76.8333 239.5,79.5C 243.377,79.4825 244.043,80.6492 241.5,83C 242.756,83.4169 243.423,84.2502 243.5,85.5C 236.031,90.0719 228.698,94.9052 221.5,100C 221.978,101.303 222.645,102.469 223.5,103.5C 221.337,102.28 219.17,102.28 217,103.5C 216.5,103.167 216,102.833 215.5,102.5C 219.335,101.004 219.335,100.004 215.5,99.5C 215.5,98.1667 215.5,96.8333 215.5,95.5C 212.833,95.5 210.167,95.5 207.5,95.5C 207.5,92.8333 207.5,90.1667 207.5,87.5C 201.5,87.5 195.5,87.5 189.5,87.5C 189.847,84.9805 190.514,82.8138 191.5,81C 191.079,76.6507 190.413,72.484 189.5,68.5C 189.5,67.8333 189.5,67.1667 189.5,66.5C 192.599,57.5456 195.265,48.5456 197.5,39.5 Z"/></g>
<g><path style="opacity:1" fill="#dd7f82" d="M 175.5,67.5 C 175.5,66.8333 175.5,66.1667 175.5,65.5C 176.573,63.3469 176.573,61.3469 175.5,59.5C 173.653,58.4271 171.653,58.4271 169.5,59.5C 169.611,58.8826 169.944,58.3826 170.5,58C 172.81,57.5034 175.143,57.3367 177.5,57.5C 177.664,60.1873 177.497,62.854 177,65.5C 176.722,66.4158 176.222,67.0825 175.5,67.5 Z"/></g>
<g><path style="opacity:1" fill="#fea56b" d="M 310.5,71.5 C 310.5,79.5 310.5,87.5 310.5,95.5C 300.167,95.5 289.833,95.5 279.5,95.5C 279.5,92.8333 279.5,90.1667 279.5,87.5C 274.167,87.5 268.833,87.5 263.5,87.5C 263.806,84.6146 263.473,81.9479 262.5,79.5C 262.5,77.1667 262.5,74.8333 262.5,72.5C 249.259,65.8751 236.592,58.2084 224.5,49.5C 222.137,51.1138 221.471,53.1138 222.5,55.5C 233.555,62.1139 244.389,69.1139 255,76.5C 255.617,77.4491 255.451,78.2825 254.5,79C 250.806,81.1782 247.139,83.3448 243.5,85.5C 243.423,84.2502 242.756,83.4169 241.5,83C 244.043,80.6492 243.377,79.4825 239.5,79.5C 239.5,76.8333 239.5,74.1667 239.5,71.5C 231.5,71.5 223.5,71.5 215.5,71.5C 215.5,68.8333 215.5,66.1667 215.5,63.5C 210.167,63.5 204.833,63.5 199.5,63.5C 199.267,57.3549 198.267,51.3549 196.5,45.5C 197.156,43.5466 197.489,41.5466 197.5,39.5C 199.833,39.5 202.167,39.5 204.5,39.5C 205.647,34.3584 206.48,29.0251 207,23.5C 206.998,28.7522 207.164,33.9189 207.5,39C 215.493,39.4997 223.493,39.6664 231.5,39.5C 231.335,42.8499 231.502,46.1832 232,49.5C 232.674,48.4216 233.674,47.7549 235,47.5C 239.073,47.8983 243.24,47.8983 247.5,47.5C 247.5,50.1667 247.5,52.8333 247.5,55.5C 255.5,55.5 263.5,55.5 271.5,55.5C 271.5,58.1667 271.5,60.8333 271.5,63.5C 276.833,63.5 282.167,63.5 287.5,63.5C 287.5,66.1667 287.5,68.8333 287.5,71.5C 293.167,71.5 298.833,71.5 304.5,71.5C 304.5,68.8333 304.5,66.1667 304.5,63.5C 306.167,63.5 307.833,63.5 309.5,63.5C 309.194,66.3854 309.527,69.0521 310.5,71.5 Z"/></g>
<g><path style="opacity:1" fill="#f8b1e7" d="M 156.5,54.5 C 156.167,54.5 155.833,54.5 155.5,54.5C 153.094,56.5311 150.427,58.1977 147.5,59.5C 142.732,65.2732 137.399,70.2732 131.5,74.5C 129.539,72.68 129.206,70.68 130.5,68.5C 130.435,68.9382 130.601,69.2716 131,69.5C 133.921,65.9084 137.421,63.0751 141.5,61C 143.867,58.4938 146.201,55.9938 148.5,53.5C 149.912,52.4675 151.578,51.8008 153.5,51.5C 155.516,51.5159 156.516,52.5159 156.5,54.5 Z"/></g>
<g><path style="opacity:1" fill="#d563ad" d="M 155.5,54.5 C 155.628,56.6547 155.128,58.6547 154,60.5C 146.935,65.7975 140.768,71.1309 135.5,76.5C 134.833,76.5 134.167,76.5 133.5,76.5C 132.833,76.1667 132.167,75.8333 131.5,75.5C 131.5,75.1667 131.5,74.8333 131.5,74.5C 137.399,70.2732 142.732,65.2732 147.5,59.5C 150.427,58.1977 153.094,56.5311 155.5,54.5 Z"/></g>
<g><path style="opacity:1" fill="#8c3867" d="M 155.5,54.5 C 155.833,54.5 156.167,54.5 156.5,54.5C 156.441,59.271 154.775,63.271 151.5,66.5C 147.959,69.2227 144.626,72.2227 141.5,75.5C 139.565,76.1495 137.565,76.4828 135.5,76.5C 140.768,71.1309 146.935,65.7975 154,60.5C 155.128,58.6547 155.628,56.6547 155.5,54.5 Z"/></g>
<g><path style="opacity:1" fill="#de72ae" d="M 165.5,61.5 C 163.206,64.4688 160.873,67.4688 158.5,70.5C 155.532,72.1397 152.865,74.1397 150.5,76.5C 150.5,76.1667 150.5,75.8333 150.5,75.5C 150.833,74.8333 151.167,74.1667 151.5,73.5C 155.372,68.5652 160.039,64.5652 165.5,61.5 Z"/></g>
<g><path style="opacity:1" fill="#f8aee5" d="M 175.5,59.5 C 175.119,60.9311 174.119,61.7645 172.5,62C 170.122,64.9637 166.789,67.6304 162.5,70C 160.286,74.9841 156.62,78.1507 151.5,79.5C 150.596,78.791 150.263,77.791 150.5,76.5C 152.865,74.1397 155.532,72.1397 158.5,70.5C 160.873,67.4688 163.206,64.4688 165.5,61.5C 166.833,60.8333 168.167,60.1667 169.5,59.5C 171.653,58.4271 173.653,58.4271 175.5,59.5 Z"/></g>
<g><path style="opacity:1" fill="#983d71" d="M 175.5,65.5 C 175.5,66.1667 175.5,66.8333 175.5,67.5C 171.826,71.1775 168.493,75.1775 165.5,79.5C 162.78,80.9421 159.946,82.2754 157,83.5C 156.235,83.4301 155.735,83.0967 155.5,82.5C 162.167,76.8333 168.833,71.1667 175.5,65.5 Z"/></g>
<g><path style="opacity:1" fill="#7d2257" d="M 189.5,70.5 C 190.039,74.4157 188.706,77.4157 185.5,79.5C 185.502,75.8355 186.835,72.8355 189.5,70.5 Z"/></g>
<g><path style="opacity:1" fill="#fe8c7f" d="M -0.5,79.5 C 2.16667,79.5 4.83333,79.5 7.5,79.5C 7.5,82.1667 7.5,84.8333 7.5,87.5C 15.5,87.5 23.5,87.5 31.5,87.5C 31.5,90.1667 31.5,92.8333 31.5,95.5C 34.7877,95.927 37.7877,95.2603 40.5,93.5C 41.8196,95.2701 43.3196,95.6034 45,94.5C 47.212,97.0024 48.0453,100.002 47.5,103.5C 51.7071,103.663 55.8737,103.329 60,102.5C 61.1074,102.585 62.1074,102.919 63,103.5C 63.1629,105.676 63.9963,107.509 65.5,109C 68,109.833 70.5,110.667 73,111.5C 77.7676,111.078 82.6009,111.078 87.5,111.5C 87.5,114.167 87.5,116.833 87.5,119.5C 92.8333,119.5 98.1667,119.5 103.5,119.5C 111.316,120.492 119.316,120.826 127.5,120.5C 128.5,120.5 129.5,120.5 130.5,120.5C 140.167,120.5 149.833,120.5 159.5,120.5C 162.167,120.5 164.833,120.5 167.5,120.5C 166.666,121.748 165.333,122.415 163.5,122.5C 148.353,122.761 133.186,122.428 118,121.5C 113.111,121.511 108.277,122.011 103.5,123C 135.5,123.667 135.5,124.333 103.5,125C 114.255,125.058 124.921,125.892 135.5,127.5C 135.5,130.167 135.5,132.833 135.5,135.5C 140.833,135.5 146.167,135.5 151.5,135.5C 151.5,138.167 151.5,140.833 151.5,143.5C 159.5,143.5 167.5,143.5 175.5,143.5C 175.5,146.167 175.5,148.833 175.5,151.5C 183.5,151.5 191.5,151.5 199.5,151.5C 199.5,154.167 199.5,156.833 199.5,159.5C 205.271,158.887 210.604,159.554 215.5,161.5C 186.167,161.5 156.833,161.5 127.5,161.5C 119.903,159.533 111.903,158.866 103.5,159.5C 103.5,156.833 103.5,154.167 103.5,151.5C 98.1667,151.5 92.8333,151.5 87.5,151.5C 87.5,148.833 87.5,146.167 87.5,143.5C 79.5,143.5 71.5,143.5 63.5,143.5C 63.5,140.833 63.5,138.167 63.5,135.5C 58.1667,135.5 52.8333,135.5 47.5,135.5C 47.5,132.833 47.5,130.167 47.5,127.5C 39.5,127.5 31.5,127.5 23.5,127.5C 23.5,124.833 23.5,122.167 23.5,119.5C 18.1667,119.5 12.8333,119.5 7.5,119.5C 7.5,116.833 7.5,114.167 7.5,111.5C 5.83333,111.5 4.16667,111.5 2.5,111.5C 2.5,108.833 2.5,106.167 2.5,103.5C 1.5,103.5 0.5,103.5 -0.5,103.5C -0.5,95.5 -0.5,87.5 -0.5,79.5 Z"/></g>
<g><path style="opacity:1" fill="#fe927b" d="M -0.5,47.5 C 0.833333,47.5 2.16667,47.5 3.5,47.5C 3.5,50.1667 3.5,52.8333 3.5,55.5C 7.5,55.5 11.5,55.5 15.5,55.5C 15.5,58.1667 15.5,60.8333 15.5,63.5C 23.3734,62.9131 31.04,63.5797 38.5,65.5C 41.0794,64.3654 43.4127,64.6987 45.5,66.5C 42.0815,69.3986 38.2481,71.732 34,73.5C 33.3333,76.5 33.3333,79.5 34,82.5C 45.9178,89.8751 57.7512,97.3751 69.5,105C 72.2247,105.803 73.8914,104.803 74.5,102C 73.1323,100.127 71.4657,98.46 69.5,97C 59.8725,91.0811 50.2058,85.2477 40.5,79.5C 39.1667,78.8333 39.1667,78.1667 40.5,77.5C 41.6223,76.3698 42.9557,75.7031 44.5,75.5C 45.7383,75.81 45.7383,76.31 44.5,77C 46.6549,78.3569 48.8215,78.5236 51,77.5C 60.3442,79.4141 69.8442,80.0808 79.5,79.5C 79.5,82.1667 79.5,84.8333 79.5,87.5C 84.8333,87.5 90.1667,87.5 95.5,87.5C 95.5,90.1667 95.5,92.8333 95.5,95.5C 98.1667,95.5 100.833,95.5 103.5,95.5C 103.182,100.032 103.515,104.366 104.5,108.5C 104.5,110.167 104.5,111.833 104.5,113.5C 104.5,115.5 104.5,117.5 104.5,119.5C 104.167,119.5 103.833,119.5 103.5,119.5C 98.1667,119.5 92.8333,119.5 87.5,119.5C 87.5,116.833 87.5,114.167 87.5,111.5C 82.6009,111.078 77.7676,111.078 73,111.5C 70.5,110.667 68,109.833 65.5,109C 63.9963,107.509 63.1629,105.676 63,103.5C 62.1074,102.919 61.1074,102.585 60,102.5C 55.8737,103.329 51.7071,103.663 47.5,103.5C 48.0453,100.002 47.212,97.0024 45,94.5C 43.3196,95.6034 41.8196,95.2701 40.5,93.5C 37.7877,95.2603 34.7877,95.927 31.5,95.5C 31.5,92.8333 31.5,90.1667 31.5,87.5C 23.5,87.5 15.5,87.5 7.5,87.5C 7.5,84.8333 7.5,82.1667 7.5,79.5C 4.83333,79.5 2.16667,79.5 -0.5,79.5C -0.5,68.8333 -0.5,58.1667 -0.5,47.5 Z"/></g>
<g><path style="opacity:1" fill="#da6bb3" d="M 175.5,59.5 C 176.573,61.3469 176.573,63.3469 175.5,65.5C 168.833,71.1667 162.167,76.8333 155.5,82.5C 154.167,82.1667 152.833,81.8333 151.5,81.5C 151.5,80.8333 151.5,80.1667 151.5,79.5C 156.62,78.1507 160.286,74.9841 162.5,70C 166.789,67.6304 170.122,64.9637 172.5,62C 174.119,61.7645 175.119,60.9311 175.5,59.5 Z"/></g>
<g><path style="opacity:1" fill="#faad08" d="M 141.5,75.5 C 142.376,75.3691 143.043,75.7025 143.5,76.5C 139.188,81.3064 134.855,85.8064 130.5,90C 125.141,93.6874 120.141,97.8541 115.5,102.5C 111.667,103.918 108,105.585 104.5,107.5C 104.5,106.5 104.5,105.5 104.5,104.5C 107.355,104.158 108.855,102.491 109,99.5C 109.333,100.833 109.667,102.167 110,103.5C 113.159,99.164 117.326,96.164 122.5,94.5C 123.429,93.3112 123.762,91.9778 123.5,90.5C 128.24,89.101 131.74,86.101 134,81.5C 135.205,80.9288 136.372,80.2621 137.5,79.5C 136.099,78.4793 134.765,77.4793 133.5,76.5C 134.167,76.5 134.833,76.5 135.5,76.5C 137.565,76.4828 139.565,76.1495 141.5,75.5 Z"/></g>
<g><path style="opacity:1" fill="#fdd553" d="M 150.5,75.5 C 150.5,75.8333 150.5,76.1667 150.5,76.5C 150.263,77.791 150.596,78.791 151.5,79.5C 151.5,80.1667 151.5,80.8333 151.5,81.5C 151.5,82.1667 151.5,82.8333 151.5,83.5C 151.843,85.4832 151.176,86.8166 149.5,87.5C 147.974,88.1047 146.974,89.2714 146.5,91C 145.552,91.4828 144.552,91.6495 143.5,91.5C 143.5,92.8333 143.5,94.1667 143.5,95.5C 139.089,98.8853 134.422,102.052 129.5,105C 124.236,104.739 120.236,106.739 117.5,111C 116.552,111.483 115.552,111.649 114.5,111.5C 114.227,109.549 114.893,108.049 116.5,107C 116.167,106.667 115.833,106.333 115.5,106C 117.935,105.925 118.602,105.092 117.5,103.5C 126.604,95.5685 135.604,87.4019 144.5,79C 146.405,77.5787 148.405,76.412 150.5,75.5 Z"/></g>
<g><path style="opacity:1" fill="#c14e87" d="M 171.5,82.5 C 170.167,83.5 170.167,84.5 171.5,85.5C 166.956,87.7018 162.956,90.7018 159.5,94.5C 162.054,89.1906 166.054,85.1906 171.5,82.5 Z"/></g>
<g><path style="opacity:1" fill="#fdd250" d="M 129.5,67.5 C 129.833,67.5 130.167,67.5 130.5,67.5C 130.5,67.8333 130.5,68.1667 130.5,68.5C 129.206,70.68 129.539,72.68 131.5,74.5C 131.5,74.8333 131.5,75.1667 131.5,75.5C 131.168,77.8699 130.168,80.3699 128.5,83C 123.16,86.4389 117.494,89.4389 111.5,92C 110.663,93.0113 110.33,94.1779 110.5,95.5C 108.5,95.5 106.5,95.5 104.5,95.5C 104.187,92.7531 104.52,90.0865 105.5,87.5C 113.227,80.4336 121.227,73.7669 129.5,67.5 Z"/></g>
<g><path style="opacity:1" fill="#fe9a74" d="M 189.5,68.5 C 190.413,72.484 191.079,76.6507 191.5,81C 190.514,82.8138 189.847,84.9805 189.5,87.5C 195.5,87.5 201.5,87.5 207.5,87.5C 207.5,90.1667 207.5,92.8333 207.5,95.5C 210.167,95.5 212.833,95.5 215.5,95.5C 215.5,96.8333 215.5,98.1667 215.5,99.5C 219.335,100.004 219.335,101.004 215.5,102.5C 216,102.833 216.5,103.167 217,103.5C 219.17,102.28 221.337,102.28 223.5,103.5C 223.735,104.097 224.235,104.43 225,104.5C 226.406,103.586 227.906,102.92 229.5,102.5C 235.169,103.281 241.169,103.615 247.5,103.5C 247.5,106.167 247.5,108.833 247.5,111.5C 255.5,111.5 263.5,111.5 271.5,111.5C 271.5,114.167 271.5,116.833 271.5,119.5C 276.833,119.5 282.167,119.5 287.5,119.5C 287.5,122.167 287.5,124.833 287.5,127.5C 294.833,127.5 302.167,127.5 309.5,127.5C 309.194,130.385 309.527,133.052 310.5,135.5C 310.5,144.167 310.5,152.833 310.5,161.5C 308.5,161.5 306.5,161.5 304.5,161.5C 303.676,158.236 303.342,154.902 303.5,151.5C 298.167,151.5 292.833,151.5 287.5,151.5C 287.5,148.833 287.5,146.167 287.5,143.5C 282.167,143.5 276.833,143.5 271.5,143.5C 271.5,140.833 271.5,138.167 271.5,135.5C 263.5,135.5 255.5,135.5 247.5,135.5C 247.5,132.833 247.5,130.167 247.5,127.5C 239.5,127.5 231.5,127.5 223.5,127.5C 223.5,124.833 223.5,122.167 223.5,119.5C 218.167,119.5 212.833,119.5 207.5,119.5C 207.5,116.833 207.5,114.167 207.5,111.5C 199.5,111.5 191.5,111.5 183.5,111.5C 183.649,110.448 183.483,109.448 183,108.5C 182.581,109.672 181.915,110.672 181,111.5C 180.661,109.166 180.828,106.832 181.5,104.5C 181.767,102.024 181.101,101.357 179.5,102.5C 181.123,99.7847 181.79,96.7847 181.5,93.5C 179.486,93.3915 177.82,94.0582 176.5,95.5C 177.835,93.203 179.668,91.203 182,89.5C 183.411,87.3496 184.245,85.0163 184.5,82.5C 184.263,81.209 184.596,80.209 185.5,79.5C 188.706,77.4157 190.039,74.4157 189.5,70.5C 189.5,69.8333 189.5,69.1667 189.5,68.5 Z"/></g>
<g><path style="opacity:1" fill="#fe9f6f" d="M 262.5,79.5 C 263.473,81.9479 263.806,84.6146 263.5,87.5C 268.833,87.5 274.167,87.5 279.5,87.5C 279.5,90.1667 279.5,92.8333 279.5,95.5C 289.833,95.5 300.167,95.5 310.5,95.5C 310.5,108.833 310.5,122.167 310.5,135.5C 309.527,133.052 309.194,130.385 309.5,127.5C 302.167,127.5 294.833,127.5 287.5,127.5C 287.5,124.833 287.5,122.167 287.5,119.5C 282.167,119.5 276.833,119.5 271.5,119.5C 271.5,116.833 271.5,114.167 271.5,111.5C 263.5,111.5 255.5,111.5 247.5,111.5C 247.5,108.833 247.5,106.167 247.5,103.5C 241.169,103.615 235.169,103.281 229.5,102.5C 239.476,94.71 250.143,87.8766 261.5,82C 262.252,81.3292 262.586,80.4959 262.5,79.5 Z"/></g>
<g><path style="opacity:1" fill="#f7a6de" d="M 171.5,85.5 C 172.167,85.8333 172.833,86.1667 173.5,86.5C 174.525,86.8966 174.692,87.5632 174,88.5C 169.484,93.2061 165.317,97.2061 161.5,100.5C 159.75,99.3406 158.75,97.674 158.5,95.5C 159.167,95.5 159.5,95.1667 159.5,94.5C 162.956,90.7018 166.956,87.7018 171.5,85.5 Z"/></g>
<g><path style="opacity:1" fill="#fdc823" d="M 131.5,75.5 C 132.167,75.8333 132.833,76.1667 133.5,76.5C 134.765,77.4793 136.099,78.4793 137.5,79.5C 136.372,80.2621 135.205,80.9288 134,81.5C 131.74,86.101 128.24,89.101 123.5,90.5C 123.762,91.9778 123.429,93.3112 122.5,94.5C 117.326,96.164 113.159,99.164 110,103.5C 109.667,102.167 109.333,100.833 109,99.5C 108.855,102.491 107.355,104.158 104.5,104.5C 104.5,101.5 104.5,98.5 104.5,95.5C 106.5,95.5 108.5,95.5 110.5,95.5C 110.33,94.1779 110.663,93.0113 111.5,92C 117.494,89.4389 123.16,86.4389 128.5,83C 130.168,80.3699 131.168,77.8699 131.5,75.5 Z"/></g>
<g><path style="opacity:1" fill="#e89009" d="M 151.5,66.5 C 152.082,68.998 152.082,71.3313 151.5,73.5C 151.167,74.1667 150.833,74.8333 150.5,75.5C 148.405,76.412 146.405,77.5787 144.5,79C 135.604,87.4019 126.604,95.5685 117.5,103.5C 113.457,107.209 109.124,110.543 104.5,113.5C 104.5,111.833 104.5,110.167 104.5,108.5C 104.5,108.167 104.5,107.833 104.5,107.5C 108,105.585 111.667,103.918 115.5,102.5C 120.141,97.8541 125.141,93.6874 130.5,90C 134.855,85.8064 139.188,81.3064 143.5,76.5C 143.043,75.7025 142.376,75.3691 141.5,75.5C 144.626,72.2227 147.959,69.2227 151.5,66.5 Z"/></g>
<g><path style="opacity:1" fill="#fbf8f4" d="M 262.5,79.5 C 262.586,80.4959 262.252,81.3292 261.5,82C 250.143,87.8766 239.476,94.71 229.5,102.5C 227.906,102.92 226.406,103.586 225,104.5C 224.235,104.43 223.735,104.097 223.5,103.5C 222.645,102.469 221.978,101.303 221.5,100C 228.698,94.9052 236.031,90.0719 243.5,85.5C 247.139,83.3448 250.806,81.1782 254.5,79C 255.451,78.2825 255.617,77.4491 255,76.5C 244.389,69.1139 233.555,62.1139 222.5,55.5C 221.471,53.1138 222.137,51.1138 224.5,49.5C 236.592,58.2084 249.259,65.8751 262.5,72.5C 262.5,74.8333 262.5,77.1667 262.5,79.5 Z"/></g>
<g><path style="opacity:1" fill="#d864ad" d="M 188.5,66.5 C 188.833,66.5 189.167,66.5 189.5,66.5C 189.5,67.1667 189.5,67.8333 189.5,68.5C 189.5,69.1667 189.5,69.8333 189.5,70.5C 186.835,72.8355 185.502,75.8355 185.5,79.5C 184.596,80.209 184.263,81.209 184.5,82.5C 180.1,87.2143 175.434,91.7143 170.5,96C 170.833,96.3333 171.167,96.6667 171.5,97C 168.894,97.7918 166.894,99.2918 165.5,101.5C 165.5,101.833 165.5,102.167 165.5,102.5C 163.847,102.34 162.514,101.674 161.5,100.5C 165.317,97.2061 169.484,93.2061 174,88.5C 174.692,87.5632 174.525,86.8966 173.5,86.5C 173.947,83.4761 174.78,83.1428 176,85.5C 178.761,84.5008 180.094,82.5008 180,79.5C 183.114,75.2765 185.947,70.9431 188.5,66.5 Z"/></g>
<g><path style="opacity:1" fill="#953d74" d="M 184.5,82.5 C 184.245,85.0163 183.411,87.3496 182,89.5C 179.668,91.203 177.835,93.203 176.5,95.5C 175.662,95.8417 175.328,96.5084 175.5,97.5C 172.386,99.3908 169.052,100.724 165.5,101.5C 166.894,99.2918 168.894,97.7918 171.5,97C 171.167,96.6667 170.833,96.3333 170.5,96C 175.434,91.7143 180.1,87.2143 184.5,82.5 Z"/></g>
<g><path style="opacity:1" fill="#ee9015" d="M 179.5,102.5 C 178.876,104.754 177.543,106.421 175.5,107.5C 176.074,104.154 176.74,100.821 177.5,97.5C 177.03,96.537 176.363,96.537 175.5,97.5C 175.328,96.5084 175.662,95.8417 176.5,95.5C 177.82,94.0582 179.486,93.3915 181.5,93.5C 181.79,96.7847 181.123,99.7847 179.5,102.5 Z"/></g>
<g><path style="opacity:1" fill="#f89f0c" d="M 172.5,75.5 C 168.473,82.1838 162.807,87.1838 155.5,90.5C 154.036,93.003 152.869,95.6697 152,98.5C 144.286,106.383 136.12,113.716 127.5,120.5C 119.316,120.826 111.316,120.492 103.5,119.5C 103.833,119.5 104.167,119.5 104.5,119.5C 106.167,119.5 107.833,119.5 109.5,119.5C 113.846,119.666 118.179,119.499 122.5,119C 126.649,116.042 130.982,113.375 135.5,111C 141.755,104.384 147.922,97.551 154,90.5C 154.825,88.2992 154.325,86.4659 152.5,85C 153.712,83.8932 153.379,83.3932 151.5,83.5C 151.5,82.8333 151.5,82.1667 151.5,81.5C 152.833,81.8333 154.167,82.1667 155.5,82.5C 155.735,83.0967 156.235,83.4301 157,83.5C 159.946,82.2754 162.78,80.9421 165.5,79.5C 167.797,77.7059 169.963,75.7059 172,73.5C 172.464,74.0944 172.631,74.7611 172.5,75.5 Z"/></g>
<g><path style="opacity:1" fill="#faae0e" d="M 175.5,107.5 C 175.385,109.947 174.385,111.947 172.5,113.5C 169.636,115.023 167.969,117.357 167.5,120.5C 164.833,120.5 162.167,120.5 159.5,120.5C 160.919,119.549 162.585,119.216 164.5,119.5C 164.5,116.833 164.5,114.167 164.5,111.5C 165.5,111.5 166.5,111.5 167.5,111.5C 167.16,108.856 167.827,106.523 169.5,104.5C 168.68,102.889 167.346,102.222 165.5,102.5C 165.5,102.167 165.5,101.833 165.5,101.5C 169.052,100.724 172.386,99.3908 175.5,97.5C 176.363,96.537 177.03,96.537 177.5,97.5C 176.74,100.821 176.074,104.154 175.5,107.5 Z"/></g>
<g><path style="opacity:1" fill="#db750a" d="M 172.5,75.5 C 172.5,77.1667 172.5,78.8333 172.5,80.5C 172.167,81.1667 171.833,81.8333 171.5,82.5C 166.054,85.1906 162.054,89.1906 159.5,94.5C 159.5,95.1667 159.167,95.5 158.5,95.5C 149.212,103.782 139.879,112.116 130.5,120.5C 129.5,120.5 128.5,120.5 127.5,120.5C 136.12,113.716 144.286,106.383 152,98.5C 152.869,95.6697 154.036,93.003 155.5,90.5C 162.807,87.1838 168.473,82.1838 172.5,75.5 Z"/></g>
<g><path style="opacity:1" fill="#febd0f" d="M 151.5,83.5 C 153.379,83.3932 153.712,83.8932 152.5,85C 154.325,86.4659 154.825,88.2992 154,90.5C 147.922,97.551 141.755,104.384 135.5,111C 130.982,113.375 126.649,116.042 122.5,119C 118.179,119.499 113.846,119.666 109.5,119.5C 109.414,118.504 109.748,117.671 110.5,117C 118.704,112.56 127.037,108.726 135.5,105.5C 137.472,101.528 140.472,98.5278 144.5,96.5C 146.624,93.7206 148.291,90.7206 149.5,87.5C 151.176,86.8166 151.843,85.4832 151.5,83.5 Z"/></g>
<g><path style="opacity:1" fill="#fd8685" d="M -0.5,103.5 C 0.5,103.5 1.5,103.5 2.5,103.5C 2.5,106.167 2.5,108.833 2.5,111.5C 4.16667,111.5 5.83333,111.5 7.5,111.5C 7.5,114.167 7.5,116.833 7.5,119.5C 12.8333,119.5 18.1667,119.5 23.5,119.5C 23.5,122.167 23.5,124.833 23.5,127.5C 31.5,127.5 39.5,127.5 47.5,127.5C 47.5,130.167 47.5,132.833 47.5,135.5C 52.8333,135.5 58.1667,135.5 63.5,135.5C 63.5,138.167 63.5,140.833 63.5,143.5C 71.5,143.5 79.5,143.5 87.5,143.5C 87.5,146.167 87.5,148.833 87.5,151.5C 92.8333,151.5 98.1667,151.5 103.5,151.5C 103.5,154.167 103.5,156.833 103.5,159.5C 111.903,158.866 119.903,159.533 127.5,161.5C 84.8333,161.5 42.1667,161.5 -0.5,161.5C -0.5,142.167 -0.5,122.833 -0.5,103.5 Z"/></g>
<g><path style="opacity:1" fill="#fecd33" d="M 149.5,87.5 C 148.291,90.7206 146.624,93.7206 144.5,96.5C 140.472,98.5278 137.472,101.528 135.5,105.5C 127.037,108.726 118.704,112.56 110.5,117C 109.748,117.671 109.414,118.504 109.5,119.5C 107.833,119.5 106.167,119.5 104.5,119.5C 104.5,117.5 104.5,115.5 104.5,113.5C 109.124,110.543 113.457,107.209 117.5,103.5C 118.602,105.092 117.935,105.925 115.5,106C 115.833,106.333 116.167,106.667 116.5,107C 114.893,108.049 114.227,109.549 114.5,111.5C 115.552,111.649 116.552,111.483 117.5,111C 120.236,106.739 124.236,104.739 129.5,105C 134.422,102.052 139.089,98.8853 143.5,95.5C 143.5,94.1667 143.5,92.8333 143.5,91.5C 144.552,91.6495 145.552,91.4828 146.5,91C 146.974,89.2714 147.974,88.1047 149.5,87.5 Z"/></g>
<g><path style="opacity:1" fill="#fdcd3f" d="M 158.5,95.5 C 158.75,97.674 159.75,99.3406 161.5,100.5C 162.514,101.674 163.847,102.34 165.5,102.5C 167.346,102.222 168.68,102.889 169.5,104.5C 167.827,106.523 167.16,108.856 167.5,111.5C 166.5,111.5 165.5,111.5 164.5,111.5C 164.5,114.167 164.5,116.833 164.5,119.5C 162.585,119.216 160.919,119.549 159.5,120.5C 149.833,120.5 140.167,120.5 130.5,120.5C 139.879,112.116 149.212,103.782 158.5,95.5 Z"/></g>
<g><path style="opacity:1" fill="#fe927a" d="M 172.5,113.5 C 174.969,114.607 175.969,116.607 175.5,119.5C 178.167,119.5 180.833,119.5 183.5,119.5C 183.5,122.167 183.5,124.833 183.5,127.5C 188.833,127.5 194.167,127.5 199.5,127.5C 199.5,130.167 199.5,132.833 199.5,135.5C 207.5,135.5 215.5,135.5 223.5,135.5C 223.5,138.167 223.5,140.833 223.5,143.5C 231.5,143.5 239.5,143.5 247.5,143.5C 247.5,146.167 247.5,148.833 247.5,151.5C 252.833,151.5 258.167,151.5 263.5,151.5C 263.5,154.167 263.5,156.833 263.5,159.5C 269.271,158.887 274.604,159.554 279.5,161.5C 258.167,161.5 236.833,161.5 215.5,161.5C 210.604,159.554 205.271,158.887 199.5,159.5C 199.5,156.833 199.5,154.167 199.5,151.5C 191.5,151.5 183.5,151.5 175.5,151.5C 175.5,148.833 175.5,146.167 175.5,143.5C 167.5,143.5 159.5,143.5 151.5,143.5C 151.5,140.833 151.5,138.167 151.5,135.5C 146.167,135.5 140.833,135.5 135.5,135.5C 135.5,132.833 135.5,130.167 135.5,127.5C 124.921,125.892 114.255,125.058 103.5,125C 135.5,124.333 135.5,123.667 103.5,123C 108.277,122.011 113.111,121.511 118,121.5C 133.186,122.428 148.353,122.761 163.5,122.5C 165.333,122.415 166.666,121.748 167.5,120.5C 167.969,117.357 169.636,115.023 172.5,113.5 Z"/></g>
<g><path style="opacity:1" fill="#fe9677" d="M 304.5,161.5 C 296.167,161.5 287.833,161.5 279.5,161.5C 274.604,159.554 269.271,158.887 263.5,159.5C 263.5,156.833 263.5,154.167 263.5,151.5C 258.167,151.5 252.833,151.5 247.5,151.5C 247.5,148.833 247.5,146.167 247.5,143.5C 239.5,143.5 231.5,143.5 223.5,143.5C 223.5,140.833 223.5,138.167 223.5,135.5C 215.5,135.5 207.5,135.5 199.5,135.5C 199.5,132.833 199.5,130.167 199.5,127.5C 194.167,127.5 188.833,127.5 183.5,127.5C 183.5,124.833 183.5,122.167 183.5,119.5C 180.833,119.5 178.167,119.5 175.5,119.5C 175.969,116.607 174.969,114.607 172.5,113.5C 174.385,111.947 175.385,109.947 175.5,107.5C 177.543,106.421 178.876,104.754 179.5,102.5C 181.101,101.357 181.767,102.024 181.5,104.5C 180.828,106.832 180.661,109.166 181,111.5C 181.915,110.672 182.581,109.672 183,108.5C 183.483,109.448 183.649,110.448 183.5,111.5C 191.5,111.5 199.5,111.5 207.5,111.5C 207.5,114.167 207.5,116.833 207.5,119.5C 212.833,119.5 218.167,119.5 223.5,119.5C 223.5,122.167 223.5,124.833 223.5,127.5C 231.5,127.5 239.5,127.5 247.5,127.5C 247.5,130.167 247.5,132.833 247.5,135.5C 255.5,135.5 263.5,135.5 271.5,135.5C 271.5,138.167 271.5,140.833 271.5,143.5C 276.833,143.5 282.167,143.5 287.5,143.5C 287.5,146.167 287.5,148.833 287.5,151.5C 292.833,151.5 298.167,151.5 303.5,151.5C 303.342,154.902 303.676,158.236 304.5,161.5 Z"/></g>
</svg>
